<?xml version="1.0" encoding="utf-8"?>
<!-- Generator: Adobe Illustrator 24.0.0, SVG Export Plug-In . SVG Version: 6.00 Build 0)  -->
<svg version="1.1" id="Layer_2" xmlns="http://www.w3.org/2000/svg" xmlns:xlink="http://www.w3.org/1999/xlink" x="0px" y="0px"
	 viewBox="0 0 24 24" style="enable-background:new 0 0 24 24;" xml:space="preserve">
<style type="text/css">
	.st0{fill-rule:evenodd;clip-rule:evenodd;fill:#9DA7A7;}
	.st1{fill:none;}
</style>
<g>
	<g id="Open-Business-Lite">
		<g id="Article" transform="translate(-150.000000, -1320.000000)">
			<g id="Group-21" transform="translate(135.000000, 1173.000000)">
				<g id="Stacked-Group-2">
					<g id="Group-15-Copy-2" transform="translate(0.000000, 132.000000)">
						<g id="icon_x2F_linkedin" transform="translate(13.000000, 13.000000)">
							<path id="Combined-Shape" class="st0" d="M8.2,9.8V24H4V9.8H8.2z M14.8,9.8l0.3,2.8h0.1c0.9-1.4,2.2-2.4,4.1-2.4
								c1.4,0,2.6,0.4,3.5,1.4c0.9,1,1.3,2.4,1.3,4.3v8h-4.2v-7.6c0-2-0.7-3-2.1-3c-1.1,0-1.8,0.5-2.1,1.7V24l0,0h-4.2l0-0.2
								c0-1.5,0.1-12.7,0-14H14.8z M6.1,4c1.2,0,2.1,0.9,2.1,2.1S7.2,8.2,6.1,8.2S4,7.2,4,6.1S4.9,4,6.1,4z"/>
						</g>
					</g>
				</g>
			</g>
		</g>
	</g>
	<rect class="st1" width="24" height="24"/>
</g>
</svg>
