<?xml version="1.0" encoding="utf-8"?>
<!-- Generator: Adobe Illustrator 24.0.0, SVG Export Plug-In . SVG Version: 6.00 Build 0)  -->
<svg version="1.1" id="Layer_2" xmlns="http://www.w3.org/2000/svg" xmlns:xlink="http://www.w3.org/1999/xlink" x="0px" y="0px"
	 viewBox="0 0 24 24" style="enable-background:new 0 0 24 24;" xml:space="preserve">
<style type="text/css">
	.st0{fill-rule:evenodd;clip-rule:evenodd;fill:#9DA7A7;}
	.st1{fill-rule:evenodd;clip-rule:evenodd;fill:none;}
</style>
<g>
	<g id="Open-Business-Lite">
		<g id="Article" transform="translate(-148.000000, -1255.000000)">
			<g id="Group-21" transform="translate(135.000000, 1173.000000)">
				<g id="Stacked-Group-2">
					<g id="Group-15-Copy" transform="translate(0.000000, 66.000000)">
						<g id="icon_x2F_twitter" transform="translate(13.000000, 13.000000)">
							<path id="Path" class="st0" d="M24,7.7c-0.9,0.4-1.8,0.6-2.8,0.8c1-0.6,1.8-1.5,2.2-2.7c-1,0.6-2,0.9-3.1,1.2
								c-0.9-0.9-2.2-1.5-3.6-1.5c-2.7,0-4.9,2.1-4.9,4.8c0,0.4,0,0.7,0.1,1.1c-4.1-0.2-7.7-2.1-10.1-5C1.2,7.1,1,7.9,1,8.8
								c0,1.7,0.9,3.1,2.2,4c-0.8,0-1.6-0.2-2.2-0.6c0,0,0,0,0,0.1c0,2.3,1.7,4.3,4,4.7c-0.4,0.1-0.8,0.2-1.3,0.2
								c-0.3,0-0.6,0-0.9-0.1c0.6,1.9,2.4,3.3,4.6,3.3c-1.7,1.3-3.8,2.1-6.1,2.1c-0.4,0-0.8,0-1.2-0.1c2.2,1.4,4.8,2.2,7.5,2.2
								c9.1,0,14-7.3,14-13.6c0-0.2,0-0.4,0-0.6C22.5,9.6,23.3,8.7,24,7.7z"/>
						</g>
					</g>
				</g>
			</g>
		</g>
	</g>
	<rect class="st1" width="24" height="24"/>
</g>
</svg>
