<?xml version="1.0" encoding="UTF-8"?>
<!DOCTYPE svg PUBLIC "-//W3C//DTD SVG 1.1//EN" "http://www.w3.org/Graphics/SVG/1.1/DTD/svg11.dtd">
<svg version="1.2" width="50.8mm" height="50.8mm" viewBox="0 0 5080 5080" preserveAspectRatio="xMidYMid" fill-rule="evenodd" stroke-width="28.222" stroke-linejoin="round" xmlns="http://www.w3.org/2000/svg" xmlns:ooo="http://xml.openoffice.org/svg/export" xmlns:xlink="http://www.w3.org/1999/xlink" xmlns:presentation="http://sun.com/xmlns/staroffice/presentation" xmlns:smil="http://www.w3.org/2001/SMIL20/" xmlns:anim="urn:oasis:names:tc:opendocument:xmlns:animation:1.0" xml:space="preserve">
 <defs class="ClipPathGroup">
  <clipPath id="presentation_clip_path" clipPathUnits="userSpaceOnUse">
   <rect x="0" y="0" width="5080" height="5080"/>
  </clipPath>
 </defs>
 <defs class="TextShapeIndex">
  <g ooo:slide="id1" ooo:id-list="id3 id4 id5 id6 id7"/>
 </defs>
 <defs class="EmbeddedBulletChars">
  <g id="bullet-char-template(57356)" transform="scale(0.00048828125,-0.00048828125)">
   <path d="M 580,1141 L 1163,571 580,0 -4,571 580,1141 Z"/>
  </g>
  <g id="bullet-char-template(57354)" transform="scale(0.00048828125,-0.00048828125)">
   <path d="M 8,1128 L 1137,1128 1137,0 8,0 8,1128 Z"/>
  </g>
  <g id="bullet-char-template(10146)" transform="scale(0.00048828125,-0.00048828125)">
   <path d="M 174,0 L 602,739 174,1481 1456,739 174,0 Z M 1358,739 L 309,1346 659,739 1358,739 Z"/>
  </g>
  <g id="bullet-char-template(10132)" transform="scale(0.00048828125,-0.00048828125)">
   <path d="M 2015,739 L 1276,0 717,0 1260,543 174,543 174,936 1260,936 717,1481 1274,1481 2015,739 Z"/>
  </g>
  <g id="bullet-char-template(10007)" transform="scale(0.00048828125,-0.00048828125)">
   <path d="M 0,-2 C -7,14 -16,27 -25,37 L 356,567 C 262,823 215,952 215,954 215,979 228,992 255,992 264,992 276,990 289,987 310,991 331,999 354,1012 L 381,999 492,748 772,1049 836,1024 860,1049 C 881,1039 901,1025 922,1006 886,937 835,863 770,784 769,783 710,716 594,584 L 774,223 C 774,196 753,168 711,139 L 727,119 C 717,90 699,76 672,76 641,76 570,178 457,381 L 164,-76 C 142,-110 111,-127 72,-127 30,-127 9,-110 8,-76 1,-67 -2,-52 -2,-32 -2,-23 -1,-13 0,-2 Z"/>
  </g>
  <g id="bullet-char-template(10004)" transform="scale(0.00048828125,-0.00048828125)">
   <path d="M 285,-33 C 182,-33 111,30 74,156 52,228 41,333 41,471 41,549 55,616 82,672 116,743 169,778 240,778 293,778 328,747 346,684 L 369,508 C 377,444 397,411 428,410 L 1163,1116 C 1174,1127 1196,1133 1229,1133 1271,1133 1292,1118 1292,1087 L 1292,965 C 1292,929 1282,901 1262,881 L 442,47 C 390,-6 338,-33 285,-33 Z"/>
  </g>
  <g id="bullet-char-template(9679)" transform="scale(0.00048828125,-0.00048828125)">
   <path d="M 813,0 C 632,0 489,54 383,161 276,268 223,411 223,592 223,773 276,916 383,1023 489,1130 632,1184 813,1184 992,1184 1136,1130 1245,1023 1353,916 1407,772 1407,592 1407,412 1353,268 1245,161 1136,54 992,0 813,0 Z"/>
  </g>
  <g id="bullet-char-template(8226)" transform="scale(0.00048828125,-0.00048828125)">
   <path d="M 346,457 C 273,457 209,483 155,535 101,586 74,649 74,723 74,796 101,859 155,911 209,963 273,989 346,989 419,989 480,963 531,910 582,859 608,796 608,723 608,648 583,586 532,535 482,483 420,457 346,457 Z"/>
  </g>
  <g id="bullet-char-template(8211)" transform="scale(0.00048828125,-0.00048828125)">
   <path d="M -4,459 L 1135,459 1135,606 -4,606 -4,459 Z"/>
  </g>
 </defs>
 <defs class="TextEmbeddedBitmaps"/>
 <g>
  <g id="id2" class="Master_Slide">
   <g id="bg-id2" class="Background"/>
   <g id="bo-id2" class="BackgroundObjects"/>
  </g>
 </g>
 <g class="SlideGroup">
  <g>
   <g id="id1" class="Slide" clip-path="url(#presentation_clip_path)">
    <g class="Page">
     <g class="com.sun.star.drawing.CustomShape">
      <g id="id3">
       <rect class="BoundingBox" stroke="none" fill="none" x="1794" y="1593" width="1512" height="1916"/>
       <path fill="rgb(204,204,204)" stroke="none" d="M 2798,1893 C 3170,2034 3347,2426 3206,2798 3065,3171 2673,3347 2300,3206 1928,3065 1753,2673 1894,2301 2035,1929 2426,1752 2798,1893 Z M 2142,1645 L 2142,1645 Z M 2957,3456 L 2957,3456 Z"/>
       <path fill="none" stroke="rgb(120,120,120)" stroke-width="102" stroke-linejoin="round" d="M 2798,1893 C 3170,2034 3347,2426 3206,2798 3065,3171 2673,3347 2300,3206 1928,3065 1753,2673 1894,2301 2035,1929 2426,1752 2798,1893 Z"/>
      </g>
     </g>
     <g class="com.sun.star.drawing.CustomShape">
      <g id="id4">
       <rect class="BoundingBox" stroke="none" fill="none" x="1223" y="3418" width="1358" height="1715"/>
       <path fill="rgb(255,255,255)" stroke="none" d="M 2123,3691 C 2454,3816 2611,4164 2485,4495 2359,4826 2010,4984 1679,4858 1348,4733 1192,4384 1318,4053 1444,3722 1792,3565 2123,3691 Z M 1539,3470 L 1539,3470 Z M 2264,5081 L 2264,5081 Z"/>
       <path fill="none" stroke="rgb(120,120,120)" stroke-width="102" stroke-linejoin="round" d="M 2123,3691 C 2454,3816 2611,4164 2485,4495 2359,4826 2010,4984 1679,4858 1348,4733 1192,4384 1318,4053 1444,3722 1792,3565 2123,3691 Z"/>
      </g>
     </g>
     <g class="com.sun.star.drawing.CustomShape">
      <g id="id5">
       <rect class="BoundingBox" stroke="none" fill="none" x="153" y="1047" width="1358" height="1716"/>
       <path fill="rgb(255,255,255)" stroke="none" d="M 1052,1320 C 1383,1445 1541,1794 1416,2125 1290,2456 942,2613 610,2487 279,2362 122,2014 248,1683 373,1351 721,1195 1052,1320 Z M 468,1099 L 468,1099 Z M 1196,2710 L 1196,2710 Z"/>
       <path fill="none" stroke="rgb(120,120,120)" stroke-width="102" stroke-linejoin="round" d="M 1052,1320 C 1383,1445 1541,1794 1416,2125 1290,2456 942,2613 610,2487 279,2362 122,2014 248,1683 373,1351 721,1195 1052,1320 Z"/>
      </g>
     </g>
     <g class="com.sun.star.drawing.CustomShape">
      <g id="id6">
       <rect class="BoundingBox" stroke="none" fill="none" x="3599" y="2353" width="1357" height="1714"/>
       <path fill="rgb(255,255,255)" stroke="none" d="M 4499,2626 C 4830,2751 4986,3099 4861,3430 4735,3761 4386,3918 4055,3792 3724,3667 3568,3319 3693,2988 3819,2657 4168,2500 4499,2626 Z M 3915,2405 L 3915,2405 Z M 4639,4015 L 4639,4015 Z"/>
       <path fill="none" stroke="rgb(120,120,120)" stroke-width="102" stroke-linejoin="round" d="M 4499,2626 C 4830,2751 4986,3099 4861,3430 4735,3761 4386,3918 4055,3792 3724,3667 3568,3319 3693,2988 3819,2657 4168,2500 4499,2626 Z"/>
      </g>
     </g>
     <g class="com.sun.star.drawing.CustomShape">
      <g id="id7">
       <rect class="BoundingBox" stroke="none" fill="none" x="2528" y="-25" width="1357" height="1714"/>
       <path fill="rgb(255,255,255)" stroke="none" d="M 3428,248 C 3759,373 3915,721 3790,1052 3664,1383 3315,1540 2984,1414 2653,1289 2497,941 2622,610 2748,279 3097,122 3428,248 Z M 2844,27 L 2844,27 Z M 3569,1637 L 3569,1637 Z"/>
       <path fill="none" stroke="rgb(120,120,120)" stroke-width="102" stroke-linejoin="round" d="M 3428,248 C 3759,373 3915,721 3790,1052 3664,1383 3315,1540 2984,1414 2653,1289 2497,941 2622,610 2748,279 3097,122 3428,248 Z"/>
      </g>
     </g>
    </g>
   </g>
  </g>
 </g>
</svg>