<?xml version="1.0" encoding="utf-8"?>
<!-- Generator: Adobe Illustrator 24.0.0, SVG Export Plug-In . SVG Version: 6.00 Build 0)  -->
<svg version="1.1" id="Layer_2" xmlns="http://www.w3.org/2000/svg" xmlns:xlink="http://www.w3.org/1999/xlink" x="0px" y="0px"
	 viewBox="0 0 20 20" style="enable-background:new 0 0 20 20;" xml:space="preserve">
<style type="text/css">
	.st0{fill-rule:evenodd;clip-rule:evenodd;fill:#454545;}
</style>
<g id="Symbols">
	<g id="checkbox_x2F_innactive-copy">
		<path id="Combined-Shape" class="st0" d="M19,0c0.6,0,1,0.4,1,1v18c0,0.6-0.4,1-1,1H1c-0.6,0-1-0.4-1-1V1c0-0.6,0.4-1,1-1H19z
			 M14.6,6.2c-0.4-0.3-1.1-0.2-1.4,0.2l0,0l-4.3,5.9L6.7,10c-0.4-0.4-1-0.4-1.4-0.1c-0.4,0.4-0.4,1-0.1,1.4l0,0l3,3.2
			C8.7,15,9.4,15,9.8,14.5l0,0l5-6.9C15.1,7.1,15,6.5,14.6,6.2z"/>
	</g>
</g>
</svg>
