<?xml version="1.0" encoding="utf-8"?>
<!-- Generator: Adobe Illustrator 24.0.1, SVG Export Plug-In . SVG Version: 6.00 Build 0)  -->
<svg version="1.1" id="Layer_2_1_" xmlns="http://www.w3.org/2000/svg" xmlns:xlink="http://www.w3.org/1999/xlink" x="0px" y="0px"
	 viewBox="0 0 16 16" style="enable-background:new 0 0 16 16;" xml:space="preserve">
<style type="text/css">
	.st0{fill-rule:evenodd;clip-rule:evenodd;fill:#C5198D;}
	.st1{fill:none;}
</style>
<g>
	<path id="Combined-Shape" class="st0" d="M13.7,2.3c0.4,0.4,0.4,1,0,1.4L9.4,8l4.2,4.2c0.4,0.4,0.4,1,0,1.4s-1,0.4-1.4,0L8,9.4
		l-4.2,4.2c-0.4,0.4-1,0.4-1.4,0s-0.4-1,0-1.4L6.6,8L2.2,3.7C2,3.4,1.8,2.8,2.3,2.3c0.4-0.4,1-0.4,1.4,0L8,6.6l4.2-4.2
		C12.6,2,13.3,1.9,13.7,2.3z"/>
	<rect class="st1" width="16" height="16"/>
</g>
</svg>
