<?xml version="1.0" encoding="utf-8"?>
<!-- Generator: Adobe Illustrator 24.0.1, SVG Export Plug-In . SVG Version: 6.00 Build 0)  -->
<svg version="1.1" id="Layer_2" xmlns="http://www.w3.org/2000/svg" xmlns:xlink="http://www.w3.org/1999/xlink" x="0px" y="0px"
	 viewBox="0 0 24 24" style="enable-background:new 0 0 24 24;" xml:space="preserve">
<style type="text/css">
	.st0{fill-rule:evenodd;clip-rule:evenodd;fill:#C5198D;}
</style>
<g id="Open-Business-Lite">
	<g id="Article" transform="translate(-326.000000, -4158.000000)">
		<g id="Group-23" transform="translate(302.000000, 4146.000000)">
			<g id="icon_x2F_Download" transform="translate(24.000000, 12.000000)">
				<path id="Combined-Shape" class="st0" d="M2,15v7h20v-7h2v7c0,1.1-0.8,1.9-1.9,2L22,24H2c-1.1,0-2-0.9-2-2v-7H2z M9,1
					c0-0.6,0.4-1,1-1h4c0.6,0,1,0.4,1,1v7h2c0.3,0,0.5,0.2,0.5,0.5c0,0.1,0,0.2-0.1,0.3l-4.6,6.1c-0.3,0.4-1,0.5-1.4,0.2
					c-0.1-0.1-0.1-0.1-0.2-0.2L6.6,8.8C6.4,8.6,6.5,8.3,6.7,8.1C6.8,8,6.9,8,7,8h2V1z"/>
			</g>
		</g>
	</g>
</g>
</svg>
