<?xml version="1.0" encoding="utf-8"?>
<!-- Generator: Adobe Illustrator 23.1.1, SVG Export Plug-In . SVG Version: 6.00 Build 0)  -->
<svg version="1.1" id="Layer_2" xmlns="http://www.w3.org/2000/svg" xmlns:xlink="http://www.w3.org/1999/xlink" x="0px" y="0px"
	 viewBox="0 0 16 16" style="enable-background:new 0 0 16 16;" xml:space="preserve">
<style type="text/css">
	.st0{fill-rule:evenodd;clip-rule:evenodd;fill:#c5198d;}
	.st1{fill-rule:evenodd;clip-rule:evenodd;fill:none;}
</style>
<g>
	<g id="Open-Business-Lite">
		<g id="Landing-page-Lite" transform="translate(-55.000000, -1543.000000)">
			<g id="Group-24" transform="translate(0.000000, 1275.000000)">
				
					<g id="Group-16-Copy" transform="translate(60.000000, 275.000000) scale(-1, 1) translate(-60.000000, -275.000000) translate(35.000000, 250.000000)">
					<g transform="translate(17.000000, 17.000000)">
						<path id="Path-3-Copy-2" class="st0" d="M9.2,14.2c0.4,0.4,0.5,1,0.1,1.4c-0.4,0.4-1,0.5-1.4,0.1l-7-6c-0.5-0.4-0.5-1.1,0-1.5
							l7-6c0.4-0.4,1-0.3,1.4,0.1c0.4,0.4,0.3,1-0.1,1.4L3,9L9.2,14.2z"/>
					</g>
				</g>
			</g>
		</g>
	</g>
	<rect x="0" transform="matrix(-1 -4.490642e-11 4.490642e-11 -1 16 16)" class="st1" width="16" height="16"/>
</g>
</svg>
