<?xml version="1.0" encoding="utf-8"?>
<!-- Generator: Adobe Illustrator 24.0.1, SVG Export Plug-In . SVG Version: 6.00 Build 0)  -->
<svg version="1.1" id="Layer_2" xmlns="http://www.w3.org/2000/svg" xmlns:xlink="http://www.w3.org/1999/xlink" x="0px" y="0px"
	 viewBox="0 0 16 16" style="enable-background:new 0 0 16 16;" xml:space="preserve">
<style type="text/css">
	.st0{fill-rule:evenodd;clip-rule:evenodd;fill:#454545;}
	.st1{fill-rule:evenodd;clip-rule:evenodd;fill:none;}
</style>
<g>
	<g id="Open-Business-Lite">
		<g id="Blog" transform="translate(-1289.000000, -1874.000000)">
			<g id="Group-7" transform="translate(135.000000, 1864.000000)">
				<g id="Stacked-Group-2" transform="translate(600.000000, 0.000000)">
					<g id="Group-4" transform="translate(497.000000, 6.000000)">
						<g id="Icon_x2F_Arrow_x2F_Right" transform="translate(53.000000, 3.000000)">
							<path id="Path-3-Copy-2" class="st0" d="M12,7l-5.2,6.1c-0.4,0.4-1,0.5-1.4,0.1c-0.4-0.4-0.5-1-0.1-1.4l6-7
								c0.4-0.5,1.1-0.5,1.5,0l6,7c0.4,0.4,0.3,1-0.1,1.4c-0.4,0.4-1,0.3-1.4-0.1L12,7z"/>
						</g>
					</g>
				</g>
			</g>
		</g>
	</g>
	<rect x="0" y="0" transform="matrix(-8.981254e-11 -1 1 -8.981254e-11 -3.597060e-10 16)" class="st1" width="16" height="16"/>
</g>
</svg>
