<?xml version="1.0" encoding="utf-8"?>
<!-- Generator: Adobe Illustrator 16.0.0, SVG Export Plug-In . SVG Version: 6.00 Build 0)  -->
<!DOCTYPE svg PUBLIC "-//W3C//DTD SVG 1.1//EN" "http://www.w3.org/Graphics/SVG/1.1/DTD/svg11.dtd">
<svg version="1.1" id="Layer_1" xmlns="http://www.w3.org/2000/svg" xmlns:xlink="http://www.w3.org/1999/xlink" x="0px" y="0px"
	 width="40px" height="40px" viewBox="0 0 40 40" enable-background="new 0 0 40 40" xml:space="preserve">
<g>
	<path fill="#30B4A4" d="M26.959,29c-4.571,0-9.144,0-13.716,0c-0.172-0.045-0.33-0.112-0.456-0.246
		c-0.11-0.116-0.167-0.258-0.214-0.406c0-5.565,0-11.13,0-16.695c0.051-0.113,0.091-0.233,0.157-0.336
		c0.114-0.177,0.297-0.262,0.495-0.316c4.583,0,9.168,0,13.751,0c0.011,0.005,0.02,0.013,0.03,0.016
		c0.393,0.103,0.619,0.396,0.619,0.802c0,1.352,0,2.703,0,4.055c0,0.037,0,0.074,0,0.117c0.044,0,0.076,0,0.107,0
		c0.309,0,0.617-0.002,0.926,0c0.41,0.004,0.755,0.346,0.768,0.758c0.014,0.422-0.303,0.791-0.717,0.811
		c-0.322,0.016-0.646,0.007-0.97,0.009c-0.034,0-0.069,0-0.108,0c0,0.551,0,1.093,0,1.645c0.035,0,0.066,0,0.098,0
		c0.307,0,0.611-0.001,0.917,0c0.427,0.001,0.774,0.344,0.78,0.77c0.008,0.432-0.33,0.792-0.758,0.801
		c-0.314,0.006-0.629,0.002-0.943,0.004c-0.031,0-0.063,0-0.094,0c0,0.54,0,1.067,0,1.604c0.036,0,0.068,0,0.1,0
		c0.287,0,0.576-0.002,0.863,0.001c0.073,0.001,0.148,0.006,0.219,0.022c0.389,0.088,0.65,0.453,0.611,0.842
		c-0.042,0.406-0.375,0.712-0.783,0.715c-0.305,0.003-0.611,0.001-0.916,0.001c-0.031,0-0.063,0-0.1,0c0,0.05,0,0.089,0,0.126
		c0,1.373,0,2.744,0,4.117c0,0.212-0.078,0.393-0.225,0.547C27.28,28.892,27.124,28.954,26.959,29z M26.046,17.567
		c-0.117,0-0.226,0.001-0.334,0c-0.466-0.007-0.816-0.351-0.813-0.795c0.004-0.446,0.357-0.782,0.824-0.782c0.108,0,0.217,0,0.325,0
		c0-1.144,0-2.278,0-3.412c-3.968,0-7.928,0-11.891,0c0,4.949,0,9.892,0,14.837c3.965,0,7.924,0,11.886,0c0-1.148,0-2.293,0-3.442
		c-0.127,0-0.248,0.002-0.367-0.001c-0.381-0.007-0.709-0.289-0.764-0.655c-0.061-0.396,0.153-0.762,0.526-0.878
		c0.115-0.035,0.242-0.035,0.364-0.045c0.08-0.008,0.162-0.002,0.242-0.002c0-0.543,0-1.07,0-1.607c-0.043,0-0.08,0.002-0.117,0
		c-0.152-0.008-0.309,0.004-0.455-0.031c-0.373-0.093-0.619-0.471-0.567-0.843c0.057-0.41,0.375-0.695,0.777-0.697
		c0.12,0,0.239,0,0.362,0C26.046,18.661,26.046,18.121,26.046,17.567z"/>
	<path fill="#30B4A4" d="M22.091,17.295c-0.002,1.528-1.216,2.706-2.79,2.705c-1.498-0.001-2.726-1.229-2.719-2.72
		c0.007-1.493,1.25-2.706,2.77-2.705C20.867,14.578,22.091,15.793,22.091,17.295z M20.551,17.328c0-0.655-0.54-1.177-1.217-1.177
		c-0.675,0-1.219,0.527-1.216,1.178c0.002,0.635,0.563,1.177,1.218,1.178C20.009,18.508,20.551,17.982,20.551,17.328z"/>
	<path fill="#30B4A4" d="M15.159,24.442c0.092-1.674,1.256-2.976,2.713-3.449c1.581-0.514,3.042-0.262,4.323,0.817
		c0.735,0.619,1.167,1.423,1.283,2.385c0.021,0.171,0.033,0.349,0.011,0.518c-0.057,0.414-0.414,0.695-0.824,0.672
		c-0.4-0.022-0.723-0.341-0.736-0.751c-0.034-1.027-0.578-1.706-1.486-2.084c-1.048-0.437-2.047-0.291-2.928,0.44
		c-0.501,0.416-0.762,0.965-0.772,1.625c-0.006,0.401-0.31,0.727-0.71,0.768c-0.384,0.04-0.755-0.221-0.841-0.601
		C15.166,24.673,15.169,24.556,15.159,24.442z"/>
</g>
</svg>
