<?xml version="1.0" encoding="utf-8"?>
<!-- Generator: Adobe Illustrator 16.0.0, SVG Export Plug-In . SVG Version: 6.00 Build 0)  -->
<!DOCTYPE svg PUBLIC "-//W3C//DTD SVG 1.1//EN" "http://www.w3.org/Graphics/SVG/1.1/DTD/svg11.dtd">
<svg version="1.1" id="Layer_1" xmlns="http://www.w3.org/2000/svg" xmlns:xlink="http://www.w3.org/1999/xlink" x="0px" y="0px"
	 width="40px" height="40px" viewBox="0 0 40 40" enable-background="new 0 0 40 40" xml:space="preserve">
<g>
	<path fill-rule="evenodd" clip-rule="evenodd" fill="#FFFFFF" d="M20.062,30c-0.041,0-0.082,0-0.123,0
		c-0.017-0.012-0.031-0.027-0.05-0.033c-0.985-0.316-1.882-0.809-2.731-1.391c-2.567-1.762-4.349-4.146-5.508-7.012
		c-0.859-2.124-1.295-4.344-1.448-6.623c-0.023-0.347-0.052-0.693-0.078-1.04c0-0.178,0-0.355,0-0.533
		c0.061,0.007,0.122,0.012,0.183,0.023c1.467,0.287,2.93,0.307,4.387-0.065c2.119-0.541,3.855-1.691,5.287-3.326
		c0.014,0,0.027,0,0.041,0c0.584,0.673,1.232,1.275,1.963,1.786c1.896,1.326,3.992,1.963,6.311,1.789
		c0.529-0.04,1.055-0.137,1.582-0.207c0,0.178,0,0.355,0,0.533c-0.01,0.066-0.025,0.133-0.031,0.2
		c-0.071,0.824-0.115,1.651-0.217,2.472c-0.25,2.014-0.771,3.956-1.627,5.8c-1.249,2.689-3.07,4.888-5.586,6.486
		C21.674,29.329,20.888,29.706,20.062,30z M11.443,14.807c0,0.117-0.007,0.219,0.001,0.319c0.132,1.557,0.393,3.091,0.858,4.585
		c0.764,2.449,1.971,4.637,3.822,6.439c1.072,1.044,2.283,1.889,3.667,2.477c0.144,0.061,0.268,0.072,0.408,0.002
		c0.306-0.154,0.623-0.282,0.922-0.447c2.426-1.334,4.209-3.286,5.465-5.732c1.125-2.188,1.698-4.533,1.934-6.97
		c0.021-0.221,0.035-0.442,0.053-0.675c-3.322,0.237-6.143-0.849-8.572-3.039C17.569,13.958,14.742,15.044,11.443,14.807z"/>
	<path fill-rule="evenodd" clip-rule="evenodd" fill="#FFFFFF" d="M23.458,24.5c-2.31,0-4.607,0-6.917,0
		c-0.127-1.374,0.26-2.534,1.377-3.389c1.104-0.845,2.624-0.927,3.824-0.228C22.984,21.605,23.64,22.979,23.458,24.5z
		 M17.864,23.262c1.426,0,2.85,0,4.278,0c-0.22-0.938-1.192-1.646-2.2-1.613C18.951,21.682,18.003,22.416,17.864,23.262z"/>
	<path fill-rule="evenodd" clip-rule="evenodd" fill="#FFFFFF" d="M22.044,17.225c-0.01,1.137-0.932,2.042-2.064,2.029
		c-1.138-0.014-2.036-0.934-2.022-2.07c0.014-1.128,0.925-2.024,2.054-2.019C21.146,15.171,22.052,16.088,22.044,17.225z
		 M20.812,17.239c0.013-0.455-0.326-0.824-0.771-0.841c-0.465-0.018-0.838,0.325-0.851,0.781c-0.014,0.463,0.333,0.832,0.791,0.841
		C20.434,18.03,20.798,17.687,20.812,17.239z"/>
</g>
</svg>
