<?xml version="1.0" encoding="utf-8"?>
<!-- Generator: Adobe Illustrator 16.0.0, SVG Export Plug-In . SVG Version: 6.00 Build 0)  -->
<!DOCTYPE svg PUBLIC "-//W3C//DTD SVG 1.1//EN" "http://www.w3.org/Graphics/SVG/1.1/DTD/svg11.dtd">
<svg version="1.1" id="Layer_1" xmlns="http://www.w3.org/2000/svg" xmlns:xlink="http://www.w3.org/1999/xlink" x="0px" y="0px"
	 width="40px" height="40px" viewBox="0 0 40 40" enable-background="new 0 0 40 40" xml:space="preserve">
<g>
	<path fill-rule="evenodd" clip-rule="evenodd" fill="#FFFFFF" d="M19.493,10c0.338,0,0.677,0,1.016,0
		c0.223,0.037,0.447,0.064,0.667,0.114c2.646,0.59,4.414,2.181,5.082,4.8c0.67,2.625-0.16,4.844-2.223,6.598
		c-0.092,0.078-0.189,0.15-0.25,0.197c0.287,0.147,0.613,0.254,0.859,0.457c0.25,0.205,0.424,0.506,0.633,0.77
		c0.027-0.028,0.08-0.084,0.133-0.141c0.516-0.553,1.023-1.111,1.547-1.655c0.477-0.495,1.064-0.669,1.73-0.487
		c0.662,0.18,1.076,0.626,1.254,1.291c0.021,0.08,0.039,0.162,0.059,0.244c0,0.104,0,0.209,0,0.313
		c-0.074,0.331-0.174,0.647-0.383,0.927c-0.922,1.234-1.83,2.479-2.758,3.71c-0.846,1.125-1.982,1.689-3.391,1.69
		c-2.875,0.003-5.75,0.001-8.625,0.001c-0.071,0-0.142,0-0.217,0c-0.19,0.482-0.511,0.834-0.984,1.034
		c-0.129,0.056-0.266,0.093-0.4,0.138c-0.938,0-1.875,0-2.813,0c-0.195-0.092-0.338-0.234-0.43-0.43c0-2.852,0-5.703,0-8.555
		c0.151-0.33,0.408-0.445,0.768-0.436c0.663,0.02,1.327,0.021,1.99,0.002c0.671-0.019,1.224,0.194,1.636,0.732
		c0.266-0.178,0.527-0.353,0.796-0.532c-0.031-0.038-0.058-0.073-0.087-0.108c-1.171-1.402-1.684-3.012-1.515-4.832
		c0.253-2.722,2.245-5.018,4.911-5.66C18.827,10.104,19.161,10.06,19.493,10z M14.726,16.822c0.021,1.141,0.55,2.409,1.607,3.453
		c0.084,0.083,0.165,0.122,0.291,0.106c0.789-0.096,1.552,0.024,2.25,0.4c0.391,0.211,0.729,0.515,1.103,0.762
		c0.134,0.089,0.303,0.199,0.445,0.188c2.941-0.236,5.078-2.751,4.857-5.698c-0.197-2.623-2.412-4.757-5.044-4.858
		C17.218,11.06,14.717,13.468,14.726,16.822z M14.726,27.656c0.097,0,0.162,0,0.227,0c2.832,0,5.664-0.002,8.495,0.001
		c1.053,0.001,1.887-0.42,2.51-1.265c0.414-0.561,0.83-1.119,1.244-1.678c0.492-0.664,0.988-1.326,1.477-1.993
		c0.275-0.377,0.107-0.858-0.328-0.95c-0.25-0.053-0.439,0.053-0.605,0.232c-0.822,0.889-1.65,1.773-2.473,2.662
		c-0.334,0.359-0.738,0.596-1.229,0.6c-1.568,0.016-3.137,0.01-4.707,0.006c-0.328-0.002-0.583-0.274-0.578-0.592
		c0.006-0.312,0.253-0.563,0.574-0.576c0.117-0.006,0.234-0.002,0.352-0.002c1.27,0,2.539,0,3.808,0
		c0.295,0,0.512-0.139,0.602-0.379c0.148-0.398-0.139-0.791-0.588-0.792c-1.113-0.003-2.227-0.005-3.339,0.003
		c-0.207,0.001-0.387-0.049-0.544-0.174c-0.229-0.182-0.45-0.373-0.679-0.557c-0.739-0.597-1.575-0.803-2.506-0.611
		c-0.586,0.119-1.063,0.432-1.504,0.823c-0.157,0.14-0.214,0.276-0.212,0.481c0.008,1.51,0.004,3.021,0.004,4.531
		C14.726,27.497,14.726,27.566,14.726,27.656z M11.179,28.828c0.596,0,1.174,0.002,1.752-0.001c0.38-0.002,0.622-0.243,0.622-0.625
		c0.001-1.938,0.001-3.877,0-5.815c0-0.391-0.243-0.627-0.638-0.629c-0.533-0.002-1.067,0-1.6,0c-0.043,0-0.087,0.008-0.136,0.012
		C11.179,24.122,11.179,26.462,11.179,28.828z"/>
	<path fill-rule="evenodd" clip-rule="evenodd" fill="#FFFFFF" d="M19.412,19.68c0.081-0.254-0.056-0.404-0.331-0.518
		c-0.193-0.079-0.361-0.232-0.518-0.376c-0.252-0.23-0.262-0.579-0.042-0.821c0.218-0.24,0.558-0.252,0.825-0.045
		c0.143,0.109,0.295,0.216,0.459,0.284c0.233,0.097,0.452,0.027,0.621-0.157c0.162-0.179,0.203-0.394,0.105-0.617
		c-0.1-0.229-0.283-0.351-0.535-0.359c-0.705-0.023-1.235-0.338-1.563-0.961c-0.463-0.879-0.083-1.974,0.826-2.39
		c0.124-0.057,0.161-0.12,0.154-0.246c-0.01-0.169-0.006-0.339-0.002-0.508c0.008-0.327,0.248-0.573,0.563-0.583
		c0.32-0.01,0.586,0.233,0.604,0.564c0.011,0.188-0.008,0.378,0.009,0.565c0.005,0.064,0.063,0.154,0.12,0.179
		c0.359,0.16,0.658,0.394,0.912,0.688c0.24,0.277,0.225,0.627-0.033,0.853c-0.248,0.217-0.582,0.181-0.839-0.066
		c-0.152-0.146-0.321-0.289-0.508-0.384c-0.233-0.121-0.475-0.069-0.662,0.124c-0.169,0.173-0.215,0.385-0.126,0.613
		c0.097,0.251,0.292,0.369,0.56,0.38c0.802,0.035,1.445,0.517,1.666,1.245c0.252,0.834-0.135,1.722-0.927,2.094
		c-0.137,0.064-0.181,0.135-0.17,0.275c0.012,0.156,0.006,0.313,0.002,0.469c-0.01,0.348-0.26,0.604-0.587,0.604
		c-0.331,0-0.575-0.254-0.582-0.604C19.411,19.896,19.412,19.813,19.412,19.68z"/>
</g>
</svg>
