<?xml version="1.0" encoding="utf-8"?>
<!-- Generator: Adobe Illustrator 16.0.0, SVG Export Plug-In . SVG Version: 6.00 Build 0)  -->
<!DOCTYPE svg PUBLIC "-//W3C//DTD SVG 1.1//EN" "http://www.w3.org/Graphics/SVG/1.1/DTD/svg11.dtd">
<svg version="1.1" id="Layer_1" xmlns="http://www.w3.org/2000/svg" xmlns:xlink="http://www.w3.org/1999/xlink" x="0px" y="0px"
	 width="40px" height="40px" viewBox="0 0 40 40" enable-background="new 0 0 40 40" xml:space="preserve">
<g>
	<path fill-rule="evenodd" clip-rule="evenodd" fill="#B4943F" d="M11.007,29c0.135-0.49,0.229-0.996,0.411-1.467
		c0.986-2.549,2.764-4.332,5.291-5.369c0.035-0.015,0.069-0.031,0.116-0.053c-1.87-1.252-2.853-2.982-2.821-5.232
		c0.023-1.716,0.701-3.166,1.971-4.315c2.568-2.323,6.493-2.016,8.671,0.643c2.234,2.729,1.681,6.94-1.473,8.897
		c0.041,0.02,0.072,0.036,0.104,0.049c3.052,1.213,4.919,3.441,5.683,6.619c0.01,0.037,0.021,0.074,0.033,0.111
		c0,0.039,0,0.078,0,0.117c-0.5,0-1.001,0-1.502,0c-0.102-0.356-0.18-0.723-0.311-1.068c-1.283-3.387-4.807-5.424-8.395-4.818
		c-2.739,0.461-4.692,1.99-5.841,4.521c-0.196,0.432-0.294,0.909-0.438,1.365C12.008,29,11.507,29,11.007,29z M24.502,16.999
		c-0.007-2.49-2.032-4.503-4.522-4.497c-2.468,0.006-4.488,2.038-4.481,4.508c0.006,2.488,2.034,4.505,4.522,4.496
		C22.489,21.498,24.509,19.467,24.502,16.999z"/>
</g>
</svg>
