<?xml version="1.0" encoding="utf-8"?>
<!-- Generator: Adobe Illustrator 16.0.0, SVG Export Plug-In . SVG Version: 6.00 Build 0)  -->
<!DOCTYPE svg PUBLIC "-//W3C//DTD SVG 1.1//EN" "http://www.w3.org/Graphics/SVG/1.1/DTD/svg11.dtd">
<svg version="1.1" id="Layer_1" xmlns="http://www.w3.org/2000/svg" xmlns:xlink="http://www.w3.org/1999/xlink" x="0px" y="0px"
	 width="40px" height="40px" viewBox="0 0 40 40" enable-background="new 0 0 40 40" xml:space="preserve">
<g>
	<path fill-rule="evenodd" clip-rule="evenodd" fill="#834498" d="M12.072,28.885c0-5.923,0-11.846,0-17.769
		c0.108-0.303,0.313-0.509,0.616-0.616c4.874,0,9.749,0,14.622,0c0.313,0.115,0.527,0.322,0.617,0.648c0,5.912,0,11.824,0,17.736
		c-0.108,0.303-0.313,0.509-0.617,0.615c-4.873,0-9.748,0-14.622,0C12.385,29.393,12.181,29.188,12.072,28.885z M26.338,12.098
		c-4.236,0-8.452,0-12.674,0c0,5.274,0,10.539,0,15.805c4.231,0,8.452,0,12.674,0C26.338,22.629,26.338,17.369,26.338,12.098z"/>
	<path fill-rule="evenodd" clip-rule="evenodd" fill="#834498" d="M19.987,25.965c-1.264,0-2.527,0.004-3.791-0.001
		c-0.628-0.003-1.013-0.642-0.712-1.177c0.157-0.278,0.408-0.406,0.725-0.406c0.572-0.002,1.146,0,1.718,0
		c1.944,0,3.889-0.001,5.833,0c0.427,0,0.746,0.235,0.83,0.606c0.117,0.519-0.25,0.976-0.795,0.978c-1.129,0.002-2.258,0-3.387,0
		C20.269,25.965,20.128,25.965,19.987,25.965z"/>
	<path fill-rule="evenodd" clip-rule="evenodd" fill="#834498" d="M20.002,20.832c1.258,0,2.516,0,3.774,0.002
		c0.453,0,0.761,0.258,0.829,0.682c0.066,0.416-0.248,0.834-0.666,0.885c-0.07,0.009-0.141,0.01-0.211,0.01
		c-2.489,0-4.979,0-7.469,0c-0.463,0-0.771-0.227-0.858-0.629c-0.102-0.465,0.235-0.924,0.712-0.941
		c0.415-0.017,0.832-0.007,1.248-0.007C18.241,20.832,19.121,20.832,20.002,20.832z"/>
	<path fill-rule="evenodd" clip-rule="evenodd" fill="#834498" d="M19.207,16.953c-0.359,0-0.694,0-1.028,0
		c-0.479-0.003-0.826-0.333-0.829-0.788c-0.003-0.452,0.345-0.792,0.821-0.797c0.339-0.003,0.678,0,1.036,0
		c0-0.347-0.004-0.681,0.001-1.014c0.007-0.396,0.28-0.718,0.65-0.776c0.5-0.08,0.919,0.271,0.931,0.787
		c0.007,0.328,0.001,0.656,0.001,1.003c0.36,0,0.704-0.004,1.048,0.001c0.465,0.006,0.811,0.347,0.809,0.792
		c-0.001,0.438-0.336,0.783-0.775,0.79c-0.352,0.006-0.702,0.001-1.069,0.001c-0.004,0.052-0.011,0.097-0.011,0.144
		c-0.001,0.28,0.002,0.561-0.002,0.842c-0.006,0.475-0.352,0.829-0.798,0.824c-0.444-0.006-0.779-0.355-0.784-0.821
		C19.204,17.617,19.207,17.295,19.207,16.953z"/>
</g>
</svg>
