<?xml version="1.0" encoding="utf-8"?>
<!-- Generator: Adobe Illustrator 24.0.0, SVG Export Plug-In . SVG Version: 6.00 Build 0)  -->
<svg version="1.1" id="Layer_2" xmlns="http://www.w3.org/2000/svg" xmlns:xlink="http://www.w3.org/1999/xlink" x="0px" y="0px"
	 viewBox="0 0 24 24" style="enable-background:new 0 0 24 24;" xml:space="preserve">
<style type="text/css">
	.st0{fill-rule:evenodd;clip-rule:evenodd;fill:#fff;}
</style>
<g id="Symbols">
	<g id="icon_x2F_instagram" transform="translate(0.000000, 1.000000)">
		<path id="Combined-Shape" class="st0" d="M17-1c2,0,3.8,0.7,5.1,2C23.3,2.2,24,4,24,6l0,0v10c0,2.1-0.7,3.9-2,5.1
			c-1.3,1.2-3,1.9-5.1,1.9l0,0H7.1c-2,0-3.7-0.6-5-1.9c-1.4-1.3-2-3.1-2-5.2l0,0V6c0-4.2,2.8-7,7-7l0,0H17z M12,5c-3.3,0-6,2.7-6,6
			s2.7,6,6,6s6-2.7,6-6S15.3,5,12,5z M12,7c2.2,0,4,1.8,4,4s-1.8,4-4,4s-4-1.8-4-4S9.8,7,12,7z M18.5,3C17.7,3,17,3.7,17,4.5
			S17.7,6,18.5,6S20,5.3,20,4.5S19.3,3,18.5,3z"/>
	</g>
</g>
</svg>
