<svg xmlns="http://www.w3.org/2000/svg" width="166.07" height="166.389" viewBox="0 0 166.07 166.389">
  <path id="nbox_logo" data-name="nbox logo" d="M124.1,191l-95.51.05s-2,0-2-1.59V26.87a2.53,2.53,0,0,1,1.5-2c1.33-.47,43.75,0,43.75,0a3.47,3.47,0,0,1,2.35,1.73L157,170s.57,1.54,1.81,1.54h12.76s1.66-.06,1.66-1.3V46.44s-.6-2-2.11-2.08H105.81L94.73,24.86h95.66s2.14.15,2.27,1.92V188.84S192.34,191,191,191H148.4a3.65,3.65,0,0,1-2.83-1.71L63.3,46.78a7.28,7.28,0,0,0-3.73-2.42H49.17s-2.9.46-2.9,1.62V169.71s.12,1.84,1.81,1.84h65.09Z" transform="translate(-26.59 -24.661)" fill="#787878"/>
</svg>
